<?xml version="1.0" encoding="UTF-8" standalone="no"?>
<!-- Created with Inkscape (http://www.inkscape.org/) -->

<svg
   xmlns:dc="http://purl.org/dc/elements/1.1/"
   xmlns:cc="http://creativecommons.org/ns#"
   xmlns:rdf="http://www.w3.org/1999/02/22-rdf-syntax-ns#"
   xmlns:svg="http://www.w3.org/2000/svg"
   xmlns="http://www.w3.org/2000/svg"
   xmlns:sodipodi="http://sodipodi.sourceforge.net/DTD/sodipodi-0.dtd"
   xmlns:inkscape="http://www.inkscape.org/namespaces/inkscape"
   width="500"
   height="500"
   id="svg2"
   version="1.1"
   inkscape:version="0.48.4 r9939"
   sodipodi:docname="icon.svg">
  <defs
     id="defs4" />
  <sodipodi:namedview
     id="base"
     pagecolor="#ffffff"
     bordercolor="#666666"
     borderopacity="1.0"
     inkscape:pageopacity="0"
     inkscape:pageshadow="2"
     inkscape:zoom="1"
     inkscape:cx="240.00002"
     inkscape:cy="234.85715"
     inkscape:document-units="px"
     inkscape:current-layer="layer1"
     showgrid="false"
     inkscape:window-width="1280"
     inkscape:window-height="967"
     inkscape:window-x="0"
     inkscape:window-y="25"
     inkscape:window-maximized="1" />
  <metadata
     id="metadata7">
    <rdf:RDF>
      <cc:Work
         rdf:about="">
        <dc:format>image/svg+xml</dc:format>
        <dc:type
           rdf:resource="http://purl.org/dc/dcmitype/StillImage" />
        <dc:title></dc:title>
      </cc:Work>
    </rdf:RDF>
  </metadata>
  <g
     inkscape:label="Layer 1"
     inkscape:groupmode="layer"
     id="layer1"
     transform="translate(0,-552.36218)"
     style="opacity:1">
    <path
       transform="matrix(1.0224016,0,0,0.99950284,-232.00916,232.55186)"
       d="m 694.28571,575.2193 a 222.85715,222.85715 0 1 1 -445.7143,0 222.85715,222.85715 0 1 1 445.7143,0 z"
       sodipodi:ry="222.85715"
       sodipodi:rx="222.85715"
       sodipodi:cy="575.2193"
       sodipodi:cx="471.42856"
       id="path3764"
       style="fill:#ffffff;fill-rule:evenodd;stroke:#0000a8;stroke-width:24;stroke-linecap:butt;stroke-linejoin:round;stroke-miterlimit:4;stroke-opacity:1;stroke-dasharray:none"
       sodipodi:type="arc" />
    <path
       transform="matrix(1.0224016,0,0,0.99950284,-232.00916,232.55186)"
       d="m 694.28571,575.2193 a 222.85715,222.85715 0 1 1 -445.7143,0 222.85715,222.85715 0 1 1 445.7143,0 z"
       sodipodi:ry="222.85715"
       sodipodi:rx="222.85715"
       sodipodi:cy="575.2193"
       sodipodi:cx="471.42856"
       id="path3766"
       style="fill:#ffffff;fill-rule:evenodd;stroke:#0000a8;stroke-width:24;stroke-linecap:butt;stroke-linejoin:round;stroke-miterlimit:4;stroke-opacity:1;stroke-dasharray:none"
       sodipodi:type="arc" />
    <path
       transform="matrix(1.0224016,0,0,0.99950284,-232.00916,232.55186)"
       d="m 694.28571,575.2193 a 222.85715,222.85715 0 1 1 -445.7143,0 222.85715,222.85715 0 1 1 445.7143,0 z"
       sodipodi:ry="222.85715"
       sodipodi:rx="222.85715"
       sodipodi:cy="575.2193"
       sodipodi:cx="471.42856"
       id="path3768"
       style="fill:#ffffff;fill-rule:evenodd;stroke:#0000a8;stroke-width:24;stroke-linecap:butt;stroke-linejoin:round;stroke-miterlimit:4;stroke-opacity:1;stroke-dasharray:none"
       sodipodi:type="arc" />
    <path
       transform="matrix(1.0224016,0,0,0.99950284,-232.00916,232.55186)"
       d="m 694.28571,575.2193 a 222.85715,222.85715 0 1 1 -445.7143,0 222.85715,222.85715 0 1 1 445.7143,0 z"
       sodipodi:ry="222.85715"
       sodipodi:rx="222.85715"
       sodipodi:cy="575.2193"
       sodipodi:cx="471.42856"
       id="path3770"
       style="fill:#ffffff;fill-rule:evenodd;stroke:#0000a8;stroke-width:24;stroke-linecap:butt;stroke-linejoin:round;stroke-miterlimit:4;stroke-opacity:1;stroke-dasharray:none"
       sodipodi:type="arc" />
    <path
       transform="matrix(1.0224016,0,0,0.99950284,-232.00916,232.55186)"
       d="m 694.28571,575.2193 a 222.85715,222.85715 0 1 1 -445.7143,0 222.85715,222.85715 0 1 1 445.7143,0 z"
       sodipodi:ry="222.85715"
       sodipodi:rx="222.85715"
       sodipodi:cy="575.2193"
       sodipodi:cx="471.42856"
       id="path3772"
       style="fill:#ffffff;fill-rule:evenodd;stroke:#0000a8;stroke-width:24;stroke-linecap:butt;stroke-linejoin:round;stroke-miterlimit:4;stroke-opacity:1;stroke-dasharray:none"
       sodipodi:type="arc" />
    <path
       transform="matrix(1.0224016,0,0,0.99950284,-232.00916,232.55186)"
       d="m 694.28571,575.2193 a 222.85715,222.85715 0 1 1 -445.7143,0 222.85715,222.85715 0 1 1 445.7143,0 z"
       sodipodi:ry="222.85715"
       sodipodi:rx="222.85715"
       sodipodi:cy="575.2193"
       sodipodi:cx="471.42856"
       id="path3774"
       style="fill:#ffffff;fill-rule:evenodd;stroke:#0000a8;stroke-width:24;stroke-linecap:butt;stroke-linejoin:round;stroke-miterlimit:4;stroke-opacity:1;stroke-dasharray:none"
       sodipodi:type="arc" />
    <path
       transform="matrix(1.0224016,0,0,0.99950284,-232.00916,232.55186)"
       d="m 694.28571,575.2193 a 222.85715,222.85715 0 1 1 -445.7143,0 222.85715,222.85715 0 1 1 445.7143,0 z"
       sodipodi:ry="222.85715"
       sodipodi:rx="222.85715"
       sodipodi:cy="575.2193"
       sodipodi:cx="471.42856"
       id="path3776"
       style="fill:#ffffff;fill-rule:evenodd;stroke:#0000a8;stroke-width:24;stroke-linecap:butt;stroke-linejoin:round;stroke-miterlimit:4;stroke-opacity:1;stroke-dasharray:none"
       sodipodi:type="arc" />
    <path
       transform="matrix(1.0224016,0,0,0.99950284,-232.00916,232.55186)"
       d="m 694.28571,575.2193 a 222.85715,222.85715 0 1 1 -445.7143,0 222.85715,222.85715 0 1 1 445.7143,0 z"
       sodipodi:ry="222.85715"
       sodipodi:rx="222.85715"
       sodipodi:cy="575.2193"
       sodipodi:cx="471.42856"
       id="path3778"
       style="fill:#ffffff;fill-rule:evenodd;stroke:#0000a8;stroke-width:24;stroke-linecap:butt;stroke-linejoin:round;stroke-miterlimit:4;stroke-opacity:1;stroke-dasharray:none"
       sodipodi:type="arc" />
    <path
       transform="matrix(1.0224016,0,0,0.99950284,-232.00916,232.55186)"
       d="m 694.28571,575.2193 a 222.85715,222.85715 0 1 1 -445.7143,0 222.85715,222.85715 0 1 1 445.7143,0 z"
       sodipodi:ry="222.85715"
       sodipodi:rx="222.85715"
       sodipodi:cy="575.2193"
       sodipodi:cx="471.42856"
       id="path3780"
       style="fill:#ffffff;fill-rule:evenodd;stroke:#0000a8;stroke-width:24;stroke-linecap:butt;stroke-linejoin:round;stroke-miterlimit:4;stroke-opacity:1;stroke-dasharray:none"
       sodipodi:type="arc" />
    <path
       transform="matrix(1.0224016,0,0,0.99950284,-232.00916,232.55186)"
       d="m 694.28571,575.2193 a 222.85715,222.85715 0 1 1 -445.7143,0 222.85715,222.85715 0 1 1 445.7143,0 z"
       sodipodi:ry="222.85715"
       sodipodi:rx="222.85715"
       sodipodi:cy="575.2193"
       sodipodi:cx="471.42856"
       id="path3782"
       style="fill:#ffffff;fill-rule:evenodd;stroke:#0000a8;stroke-width:24;stroke-linecap:butt;stroke-linejoin:round;stroke-miterlimit:4;stroke-opacity:1;stroke-dasharray:none"
       sodipodi:type="arc" />
    <path
       transform="matrix(1.0224016,0,0,0.99950284,-232.00916,232.55186)"
       d="m 694.28571,575.2193 a 222.85715,222.85715 0 1 1 -445.7143,0 222.85715,222.85715 0 1 1 445.7143,0 z"
       sodipodi:ry="222.85715"
       sodipodi:rx="222.85715"
       sodipodi:cy="575.2193"
       sodipodi:cx="471.42856"
       id="path3784"
       style="fill:#ffffff;fill-rule:evenodd;stroke:#0000a8;stroke-width:24;stroke-linecap:butt;stroke-linejoin:round;stroke-miterlimit:4;stroke-opacity:1;stroke-dasharray:none"
       sodipodi:type="arc" />
    <path
       transform="matrix(1.0224016,0,0,0.99950284,-232.00916,232.55186)"
       d="m 694.28571,575.2193 a 222.85715,222.85715 0 1 1 -445.7143,0 222.85715,222.85715 0 1 1 445.7143,0 z"
       sodipodi:ry="222.85715"
       sodipodi:rx="222.85715"
       sodipodi:cy="575.2193"
       sodipodi:cx="471.42856"
       id="path3786"
       style="fill:#ffffff;fill-rule:evenodd;stroke:#0000a8;stroke-width:24;stroke-linecap:butt;stroke-linejoin:round;stroke-miterlimit:4;stroke-opacity:1;stroke-dasharray:none"
       sodipodi:type="arc" />
    <path
       transform="matrix(1.0224016,0,0,0.99950284,-232.00916,232.55186)"
       d="m 694.28571,575.2193 a 222.85715,222.85715 0 1 1 -445.7143,0 222.85715,222.85715 0 1 1 445.7143,0 z"
       sodipodi:ry="222.85715"
       sodipodi:rx="222.85715"
       sodipodi:cy="575.2193"
       sodipodi:cx="471.42856"
       id="path3788"
       style="fill:#ffffff;fill-rule:evenodd;stroke:#0000a8;stroke-width:24;stroke-linecap:butt;stroke-linejoin:round;stroke-miterlimit:4;stroke-opacity:1;stroke-dasharray:none"
       sodipodi:type="arc" />
    <path
       transform="matrix(1.0224016,0,0,0.99950284,-232.00916,232.55186)"
       d="m 694.28571,575.2193 a 222.85715,222.85715 0 1 1 -445.7143,0 222.85715,222.85715 0 1 1 445.7143,0 z"
       sodipodi:ry="222.85715"
       sodipodi:rx="222.85715"
       sodipodi:cy="575.2193"
       sodipodi:cx="471.42856"
       id="path3790"
       style="fill:#ffffff;fill-rule:evenodd;stroke:#0000a8;stroke-width:24;stroke-linecap:butt;stroke-linejoin:round;stroke-miterlimit:4;stroke-opacity:1;stroke-dasharray:none"
       sodipodi:type="arc" />
    <path
       transform="matrix(1.0224016,0,0,0.99950284,-232.00916,232.55186)"
       d="m 694.28571,575.2193 a 222.85715,222.85715 0 1 1 -445.7143,0 222.85715,222.85715 0 1 1 445.7143,0 z"
       sodipodi:ry="222.85715"
       sodipodi:rx="222.85715"
       sodipodi:cy="575.2193"
       sodipodi:cx="471.42856"
       id="path3792"
       style="fill:#ffffff;fill-rule:evenodd;stroke:#0000a8;stroke-width:24;stroke-linecap:butt;stroke-linejoin:round;stroke-miterlimit:4;stroke-opacity:1;stroke-dasharray:none"
       sodipodi:type="arc" />
    <path
       transform="matrix(1.0224016,0,0,0.99950284,-232.00916,232.55186)"
       d="m 694.28571,575.2193 a 222.85715,222.85715 0 1 1 -445.7143,0 222.85715,222.85715 0 1 1 445.7143,0 z"
       sodipodi:ry="222.85715"
       sodipodi:rx="222.85715"
       sodipodi:cy="575.2193"
       sodipodi:cx="471.42856"
       id="path3794"
       style="fill:#ffffff;fill-rule:evenodd;stroke:#0000a8;stroke-width:24;stroke-linecap:butt;stroke-linejoin:round;stroke-miterlimit:4;stroke-opacity:1;stroke-dasharray:none"
       sodipodi:type="arc" />
    <path
       sodipodi:type="arc"
       style="fill:#ffffff;fill-rule:evenodd;stroke:#0000a8;stroke-width:24;stroke-linecap:butt;stroke-linejoin:round;stroke-miterlimit:4;stroke-opacity:1;stroke-dasharray:none"
       id="path2987"
       sodipodi:cx="471.42856"
       sodipodi:cy="575.2193"
       sodipodi:rx="222.85715"
       sodipodi:ry="222.85715"
       d="m 694.28571,575.2193 a 222.85715,222.85715 0 1 1 -445.7143,0 222.85715,222.85715 0 1 1 445.7143,0 z"
       transform="matrix(1.0224016,0,0,0.99950284,-232.00916,232.55186)" />
    <g
       style="font-size:373.13555908000000727px;font-style:normal;font-weight:normal;line-height:125%;letter-spacing:0px;word-spacing:0px;fill:#0000a8;fill-opacity:1;stroke:none;font-family:Sans"
       id="text3757"
       transform="matrix(1.0224016,0,0,0.99950284,-126.84786,329.64643)">
      <path
         d="m 407.19956,465.92715 c 8.50225,2.30794 15.79005,6.25549 21.86341,11.84268 6.19443,5.46597 11.72101,13.17889 16.57976,23.13878 l 39.53633,80.71243 33.15951,0 0,19.31268 -64.13267,0 -42.45146,-86.54268 c -8.13822,-16.76184 -15.60822,-27.57207 -22.41,-32.43072 -6.8021,-4.97988 -16.15477,-7.46988 -28.05804,-7.47 l -40.62951,0 0,178.20214 -36.9856,0 0,-304.28115 -34.61707,0 0,-19.49487 137.92169,0 c 26.47883,2.7e-4 46.88466,6.31636 61.21755,18.94829 14.45391,12.63243 21.68097,30.54826 21.68122,53.74755 -2.5e-4,18.70554 -5.2839,33.46333 -15.85098,44.27341 -10.44607,10.68892 -26.0541,17.3694 -46.82414,20.04146 m -86.54267,-10.93171 53.74755,0 c 18.34081,1.5e-4 31.88397,-4.3118 40.62951,-12.93585 8.74517,-8.7452 13.11785,-22.22762 13.11805,-40.44731 -2e-4,-18.21929 -4.37288,-31.64098 -13.11805,-40.26512 -8.74554,-8.62365 -22.2887,-12.9356 -40.62951,-12.93585 l -53.74755,0 0,106.58413"
         style="font-variant:normal;font-stretch:normal;fill:#0000a8;font-family:DejaVu Serif;-inkscape-font-specification:DejaVu Serif"
         id="path3762"
         inkscape:connector-curvature="0"
         sodipodi:nodetypes="ccccccccccccccccccccccscccccc" />
    </g>
    <path
       style="fill:#ffffff;stroke:#000000;stroke-width:1.01088738000000000px;stroke-linecap:butt;stroke-linejoin:miter;stroke-opacity:0"
       d="m 161.55637,983.43076 c 13.42616,-12.36822 18.33188,-3.28136 21.94661,0.50484 z M 192.0557,982.989 c 1.90419,-1.64068 3.96976,-3.72309 4.61525,-3.84929 1.29098,-0.25242 5.68029,4.54342 5.68029,4.54342 z m 10.29554,-35.14845 c 0,0 -3.80838,9.9703 -8.06861,19.46732 -1.06506,2.37425 -2.15835,4.71893 -3.22743,6.87085 -1.0691,2.15192 -2.11398,4.11107 -3.08222,5.71428 -0.96822,1.60321 -1.85981,2.85049 -2.62229,3.57864 l 3.058,0.71633 m 0,0 c 0,-3.28137 15.23353,-22.21232 15.23353,-22.21232 l -1.29098,-14.1351"
       id="path3800"
       inkscape:connector-curvature="0"
       sodipodi:nodetypes="cccsssccccsc" />
    <path
       style="fill:#ffffff;stroke:#000000;stroke-width:1.01088738000000000px;stroke-linecap:butt;stroke-linejoin:miter;stroke-opacity:0"
       d="m 157.2337,967.04127 c 0,0 44.91264,-53.80028 46.73836,-64.50925 1.82572,-10.70895 18.54971,-28.21003 -2.56361,-32.96765 -5.10521,34.87116 -25.24994,57.38481 -35.38091,70.45516 -20.1562,26.00431 -8.79384,27.02174 -8.79384,27.02174 z"
       id="path3832"
       inkscape:connector-curvature="0"
       sodipodi:nodetypes="cscsc" />
    <path
       style="fill:#ffffff;stroke:#000000;stroke-width:1.01088738000000000px;stroke-linecap:butt;stroke-linejoin:miter;stroke-opacity:0"
       d="m 160.7055,889.43205 c 0,0 22.51498,-29.89175 19.73847,-43.4008 -1.40151,-6.81898 -8.41971,-11.14901 -8.41971,-11.14901 0,0 -1.83408,9.87045 -3.60437,15.35852 -1.94293,6.02332 -6.13564,14.78992 -5.81888,17.83384 0.76143,7.31737 -1.89551,21.35745 -1.89551,21.35745 z"
       id="path3834"
       inkscape:connector-curvature="0"
       sodipodi:nodetypes="cscssc" />
  </g>
</svg>
